<?xml version="1.0" standalone="no"?><!DOCTYPE svg PUBLIC "-//W3C//DTD SVG 1.1//EN" "http://www.w3.org/Graphics/SVG/1.1/DTD/svg11.dtd"><svg t="1590028895368" class="icon" viewBox="0 0 1024 1024" version="1.1" xmlns="http://www.w3.org/2000/svg" p-id="13725" xmlns:xlink="http://www.w3.org/1999/xlink" width="200" height="200"><defs><style type="text/css"></style></defs><path d="M207.5648 116.8384a90.368 90.368 0 0 0-90.5216 90.2656v469.5552a90.368 90.368 0 0 0 90.5216 90.2656h608.8704a90.368 90.368 0 0 0 90.5216-90.2656V207.104a90.368 90.368 0 0 0-90.5216-90.2656H207.5648z m0-65.6384h608.8704A156.1088 156.1088 0 0 1 972.8 207.1552v469.8112a156.1088 156.1088 0 0 1-156.3648 155.9552H207.5648A156.16 156.16 0 0 1 51.2 676.9664V207.1552A156.16 156.16 0 0 1 207.5648 51.2zM290.816 972.8a32.9216 32.9216 0 1 1 0-65.8432h442.2656a32.9216 32.9216 0 0 1 0 65.8432H290.8672z m60.928-468.1728L239.4112 602.624a32.9216 32.9216 0 1 1-43.1616-49.6128L349.4912 419.328a32.9216 32.9216 0 0 1 53.6576 17.0496l22.016 91.2384 82.688-179.5584a32.9216 32.9216 0 0 1 55.552-6.7584l82.3296 103.2192 135.4752-143.36a32.9216 32.9216 0 0 1 47.872 45.2608l-161.4848 170.8544a32.9216 32.9216 0 0 1-49.664-2.048l-72.704-91.0848-100.0448 217.088c-13.056 28.3648-54.528 24.32-61.8496-6.0416l-31.5392-130.56z" fill="#ffffff" opacity=".8" p-id="13726"></path></svg>